# xmcd
#
# Track frame offsets:
#	183
#	17533
#	31010
#	41260
#	57095
#	71510
#	87800
#	97320
#	112490
#	127025
#	139583
#	154280
#	175500
#	188203
#	202293
#	212830
#
# Disc length: 2921 seconds
#
# Revision: 1
# Processed by: cddbd v1.5.2PL0 Copyright (c) Steve Scherf et al.
# Submitted via: audiograbber 1.83.01
#
DISCID=e40b6710
DTITLE=Christian Bleiming - Piano-Blues and Boogie-Woogie
DYEAR=1993
DGENRE=Blues
TTITLE0=Six Wheel Chaser
TTITLE1=Hamp's Boogie-Woogie
TTITLE2=Boogie-Woogie On A Riff
TTITLE3=Stop-Time Fantasy
TTITLE4=CB's Lonesome Blues
TTITLE5=C-Jam Boogie
TTITLE6=Texas Stomp
TTITLE7=Whistlin' Blues
TTITLE8=Honky Tonk Train Blues
TTITLE9=Bluesy Attic
TTITLE10=The Sheik Of Araby
TTITLE11=Blues After Hours
TTITLE12=Side-Tracked
TTITLE13=CB's Bounce
TTITLE14=Stompin' At The "Subway"
TTITLE15=Shout For Joy
EXTD=
EXTT0=
EXTT1=
EXTT2=
EXTT3=
EXTT4=
EXTT5=
EXTT6=
EXTT7=
EXTT8=
EXTT9=
EXTT10=
EXTT11=
EXTT12=
EXTT13=
EXTT14=
EXTT15=
PLAYORDER=
